<svg width="2367" height="594" xmlns="http://www.w3.org/2000/svg" xmlns:xlink="http://www.w3.org/1999/xlink" xml:space="preserve" overflow="hidden"><defs><clipPath id="clip0"><rect x="1017" y="77" width="2367" height="594"/></clipPath><clipPath id="clip1"><rect x="2821" y="303" width="331" height="331"/></clipPath><clipPath id="clip2"><rect x="2821" y="303" width="331" height="331"/></clipPath><clipPath id="clip3"><rect x="2821" y="303" width="331" height="331"/></clipPath><clipPath id="clip4"><rect x="1729" y="303" width="331" height="331"/></clipPath><clipPath id="clip5"><rect x="1729" y="303" width="331" height="331"/></clipPath><clipPath id="clip6"><rect x="1729" y="303" width="331" height="331"/></clipPath></defs><g clip-path="url(#clip0)" transform="translate(-1017 -77)"><path d="M1017 194.335C1017 141.683 1059.68 99 1112.34 99L3288.67 99C3341.32 99 3384 141.683 3384 194.335L3384 575.665C3384 628.317 3341.32 671 3288.67 671L1112.34 671C1059.68 671 1017 628.317 1017 575.665Z" fill="#FEF5AC" fill-rule="evenodd"/><text font-family="Amasis MT Pro Black,Amasis MT Pro Black_MSFontService,sans-serif" font-weight="900" font-size="128" transform="matrix(1 0 0 1 1860.26 239)">Result 4S4</text><rect x="2459" y="334" width="330" height="270" stroke="#FF0000" stroke-width="13.75" stroke-miterlimit="8" fill="#FF8C97"/><g clip-path="url(#clip1)"><g clip-path="url(#clip2)"><g clip-path="url(#clip3)"><path d="M3107.69 376.531 3078.47 347.312 2986 439.781 2893.53 347.312 2864.31 376.531 2956.78 469 2864.31 561.469 2893.53 590.687 2986 498.219 3078.47 590.687 3107.69 561.469 3015.22 469Z" fill="#FF0000"/></g></g></g><rect x="1352" y="334" width="330" height="270" stroke="#00B050" stroke-width="13.75" stroke-miterlimit="8" fill="#C3FF99"/><g clip-path="url(#clip4)"><g clip-path="url(#clip5)"><g clip-path="url(#clip6)"><path d="M2024.97 358.312 1848.97 524.687 1764.41 438.062 1735.19 465.906 1847.59 581.406 1877.16 553.906 2052.81 387.187Z" fill="#00B050"/></g></g></g></g></svg>